<svg width="82" height="38" viewBox="0 0 82 38" fill="none" xmlns="http://www.w3.org/2000/svg">
<g clip-path="url(#clip0_706_11657)">
<path d="M17.1838 13.9273L12.5717 14.3089V9.27344H4.04214V14.9818L0.00390625 15.3604V22.3727L11.6625 21.3663C12.6442 18.3258 14.6074 15.7239 17.1838 13.9273Z" fill="#FAFAFA"/>
<path d="M39.4218 14.3504V5.78473L34.9456 6.28947V0.03125H26.25V11.3249C29.5996 11.4901 32.6532 12.7911 35.0363 14.8461L39.4218 14.3504Z" fill="#FAFAFA"/>
<path d="M15.1562 11.9799L23.6857 11.3069V0.03125H0V6.70709H15.1562V11.9799Z" fill="#FAFAFA"/>
<path d="M25.5173 13.5586C18.7306 13.5586 13.2305 19.0297 13.2305 25.7806C13.2305 32.5316 18.7306 38.0026 25.5173 38.0026C32.3041 38.0026 37.8042 32.5316 37.8042 25.7806C37.8012 19.0297 32.3011 13.5586 25.5173 13.5586ZM25.5173 29.2687C23.5783 29.2687 22.0077 27.7064 22.0077 25.7776C22.0077 23.8488 23.5783 22.2865 25.5173 22.2865C27.4564 22.2865 29.027 23.8488 29.027 25.7776C29.024 27.7064 27.4534 29.2687 25.5173 29.2687Z" fill="#FAFAFA"/>
<path d="M77.5238 14.4345L82 13.9297V5.36411L77.5238 5.86885V0.03125H68.8281V11.3159C72.1113 11.394 75.1256 12.5597 77.5238 14.4615V14.4345Z" fill="#FAFAFA"/>
<path d="M65.5263 11.6031L58.6489 7.9377V7.09646H66.2481V0H41.7197V7.09646H49.7418V7.97976L39.3125 15.0762L44.6314 20.9559L54.3419 14.1508L57.767 15.9836C59.7936 13.7963 62.4878 12.228 65.5263 11.6031Z" fill="#FAFAFA"/>
<path d="M68.4666 13.5586C61.6798 13.5586 56.1797 19.0297 56.1797 25.7806C56.1797 32.5316 61.6798 38.0026 68.4666 38.0026C75.2533 38.0026 80.7534 32.5316 80.7534 25.7806C80.7534 19.0297 75.2533 13.5586 68.4666 13.5586ZM68.4666 29.2687C66.5275 29.2687 64.9569 27.7064 64.9569 25.7776C64.9569 23.8488 66.5275 22.2865 68.4666 22.2865C70.4056 22.2865 71.9762 23.8488 71.9762 25.7776C71.9762 27.7064 70.4056 29.2687 68.4666 29.2687Z" fill="#FAFAFA"/>
</g>
<defs>
<clipPath id="clip0_706_11657">
<rect width="82" height="38" fill="white"/>
</clipPath>
</defs>
</svg>
