<svg width="540" height="540" viewBox="0 0 540 540" fill="none" xmlns="http://www.w3.org/2000/svg">
<g clip-path="url(#clip0_1788_12079)">
<path d="M124.774 239.362L96.6511 241.701V210.834H44.6418V245.827L20.0184 248.147V291.132L91.1076 284.962C97.0931 266.325 109.064 250.376 124.774 239.362Z" fill="#0084FF"/>
<path d="M260.377 241.959V189.452L233.083 192.546V154.184H180.061V223.413C200.485 224.426 219.105 232.401 233.636 244.998L260.377 241.959Z" fill="#0084FF"/>
<path d="M112.416 227.428L164.425 223.303V154.184H20V195.106H112.416V227.428Z" fill="#0084FF"/>
<path d="M175.604 237.115C134.221 237.115 100.684 270.652 100.684 312.035C100.684 353.418 134.221 386.955 175.604 386.955C216.987 386.955 250.524 353.418 250.524 312.035C250.506 270.652 216.969 237.115 175.604 237.115ZM175.604 333.417C163.781 333.417 154.204 323.84 154.204 312.017C154.204 300.193 163.781 290.616 175.604 290.616C187.428 290.616 197.005 300.193 197.005 312.017C196.986 323.84 187.409 333.417 175.604 333.417Z" fill="#0084FF"/>
<path d="M492.706 242.475L520 239.381V186.874L492.706 189.968V154.184H439.684V223.358C459.703 223.837 478.083 230.983 492.706 242.64V242.475Z" fill="#0084FF"/>
<path d="M419.554 225.126L377.619 202.657V197.501H423.956V154H274.392V197.501H323.308V202.915L259.714 246.416L292.146 282.458L351.357 240.744L372.241 251.978C384.599 238.57 401.027 228.957 419.554 225.126Z" fill="#0084FF"/>
<path d="M437.492 237.115C396.11 237.115 362.572 270.652 362.572 312.035C362.572 353.418 396.11 386.955 437.492 386.955C478.875 386.955 512.412 353.418 512.412 312.035C512.412 270.652 478.875 237.115 437.492 237.115ZM437.492 333.417C425.669 333.417 416.092 323.84 416.092 312.017C416.092 300.193 425.669 290.616 437.492 290.616C449.316 290.616 458.893 300.193 458.893 312.017C458.893 323.84 449.316 333.417 437.492 333.417Z" fill="#0084FF"/>
</g>
<defs>
<clipPath id="clip0_1788_12079">
<rect width="500" height="232.937" fill="white" transform="translate(20 154)"/>
</clipPath>
</defs>
</svg>
