<svg width="20" height="20" viewBox="0 0 20 20" fill="none" xmlns="http://www.w3.org/2000/svg">
<g id="Frame 5046">
<g id="Group">
<path id="Vector" d="M14.0263 16.5H3.03313C2.89174 16.5 2.75613 16.4451 2.65615 16.3475C2.55617 16.2498 2.5 16.1173 2.5 15.9792V7.47262C2.5 7.3345 2.55617 7.20203 2.65615 7.10435C2.75613 7.00668 2.89174 6.95181 3.03313 6.95181H5.49264C5.79952 6.95182 6.10117 6.87419 6.36822 6.72648C6.63527 6.57878 6.85862 6.36604 7.01651 6.10897L9.42448 2.18814C9.60609 1.89201 9.89219 1.67092 10.229 1.56642C10.5658 1.46193 10.93 1.48124 11.2533 1.62073C11.5765 1.76021 11.8364 2.01026 11.9842 2.32384C12.1319 2.63742 12.1573 2.99293 12.0555 3.3235L11.1474 6.2817C11.1236 6.3594 11.1187 6.44145 11.1331 6.52132C11.1475 6.60119 11.1808 6.67667 11.2303 6.74175C11.2798 6.80684 11.3442 6.85972 11.4184 6.89619C11.4925 6.93265 11.5744 6.9517 11.6574 6.95181H15.7225C15.9958 6.95176 16.2654 7.01327 16.5104 7.13156C16.7553 7.24985 16.9691 7.42174 17.135 7.63386C17.3009 7.84598 17.4145 8.09262 17.467 8.35461C17.5194 8.6166 17.5093 8.88687 17.4374 9.14442L15.7403 15.2205C15.6378 15.5878 15.4146 15.9119 15.1051 16.1431C14.7956 16.3743 14.4159 16.4997 14.0263 16.5Z" stroke="#959595" stroke-linecap="round"/>
<path id="Vector_2" d="M5.60938 16.471V6.92285" stroke="#959595" stroke-linecap="round" stroke-linejoin="round"/>
</g>
</g>
</svg>
