<svg width="71" height="34" viewBox="0 0 71 34" fill="none" xmlns="http://www.w3.org/2000/svg">
<g id="&#235;&#161;&#156;&#234;&#179;&#160;" clip-path="url(#clip0_218_2529)">
<g id="Group">
<g id="Group_2">
<g id="Group_3">
<path id="Vector" d="M15.1677 12.6423L11.2305 12.9698V8.64844H3.94923V13.5473L0.501953 13.8722V19.8901L10.4544 19.0263C11.2924 16.417 12.9683 14.1842 15.1677 12.6423Z" fill="#212121"/>
<path id="Vector_2" d="M34.1524 13.0072V5.65632L30.3313 6.08948V0.71875H22.9082V10.4108C25.7676 10.5526 28.3743 11.6691 30.4087 13.4327L34.1524 13.0072Z" fill="#212121"/>
<path id="Vector_3" d="M13.4382 10.9729L20.7195 10.3954V0.71875H0.5V6.44787H13.4382V10.9729Z" fill="#212121"/>
</g>
<path id="Vector_4" d="M22.2837 12.3281C16.4901 12.3281 11.7949 17.0233 11.7949 22.8169C11.7949 28.6105 16.4901 33.3057 22.2837 33.3057C28.0773 33.3057 32.7725 28.6105 32.7725 22.8169C32.7699 17.0233 28.0747 12.3281 22.2837 12.3281ZM22.2837 25.8104C20.6284 25.8104 19.2876 24.4696 19.2876 22.8143C19.2876 21.159 20.6284 19.8183 22.2837 19.8183C23.939 19.8183 25.2798 21.159 25.2798 22.8143C25.2772 24.4696 23.9364 25.8104 22.2837 25.8104Z" fill="#212121"/>
</g>
<g id="Group_4">
<g id="Group_5">
<path id="Vector_5" d="M66.679 13.0794L70.5001 12.6463V5.29535L66.679 5.72851V0.71875H59.2559V10.4031C62.0585 10.4701 64.6318 11.4705 66.679 13.1026V13.0794Z" fill="#212121"/>
<path id="Vector_6" d="M56.4382 10.6529L50.5672 7.50735V6.78541H57.0544V0.695312H36.1155V6.78541H42.9636V7.54344L34.0605 13.6335L38.601 18.6794L46.8905 12.8394L49.8143 14.4122C51.5444 12.5352 53.8443 11.1892 56.4382 10.6529Z" fill="#212121"/>
</g>
<path id="Vector_7" d="M58.9497 12.3281C53.1561 12.3281 48.4609 17.0233 48.4609 22.8169C48.4609 28.6105 53.1561 33.3057 58.9497 33.3057C64.7433 33.3057 69.4385 28.6105 69.4385 22.8169C69.4385 17.0233 64.7433 12.3281 58.9497 12.3281ZM58.9497 25.8104C57.2944 25.8104 55.9537 24.4696 55.9537 22.8143C55.9537 21.159 57.2944 19.8183 58.9497 19.8183C60.605 19.8183 61.9458 21.159 61.9458 22.8143C61.9458 24.4696 60.605 25.8104 58.9497 25.8104Z" fill="#212121"/>
</g>
</g>
</g>
<defs>
<clipPath id="clip0_218_2529">
<rect width="70" height="32.6111" fill="white" transform="translate(0.5 0.695312)"/>
</clipPath>
</defs>
</svg>
