<svg width="60" height="28" viewBox="0 0 60 28" fill="none" xmlns="http://www.w3.org/2000/svg">
<g clip-path="url(#clip0_1254_11912)">
<path d="M12.5726 10.2436L9.19788 10.5243V6.82031H2.95676V11.0194L0.00195312 11.2978V16.456L8.53266 15.7157C9.25092 13.4791 10.6874 11.5652 12.5726 10.2436Z" fill="#0084FF"/>
<path d="M28.845 10.5554V4.25466L25.5697 4.62595V0.0224609H19.207V8.32995C21.658 8.4515 23.8923 9.40845 25.636 10.9201L28.845 10.5554Z" fill="#0084FF"/>
<path d="M11.0899 8.81174L17.331 8.31669V0.0224609H0V4.93314H11.0899V8.81174Z" fill="#0084FF"/>
<path d="M18.672 9.97461C13.7061 9.97461 9.68164 13.9991 9.68164 18.965C9.68164 23.9309 13.7061 27.9554 18.672 27.9554C23.638 27.9554 27.6624 23.9309 27.6624 18.965C27.6602 13.9991 23.6357 9.97461 18.672 9.97461ZM18.672 21.5308C17.2532 21.5308 16.104 20.3816 16.104 18.9628C16.104 17.5439 17.2532 16.3947 18.672 16.3947C20.0909 16.3947 21.2401 17.5439 21.2401 18.9628C21.2379 20.3816 20.0887 21.5308 18.672 21.5308Z" fill="#0084FF"/>
<path d="M56.724 10.6173L59.9993 10.246V3.94526L56.724 4.31654V0.0224609H50.3613V8.32332C52.7636 8.38078 54.9692 9.23827 56.724 10.6372V10.6173Z" fill="#0084FF"/>
<path d="M47.9464 8.53512L42.9142 5.83889V5.22008H48.4746V0H30.527V5.22008H36.3968V5.86983L28.7656 11.0899L32.6575 15.4149L39.7627 10.4092L42.2689 11.7573C43.7518 10.1484 45.7232 8.9948 47.9464 8.53512Z" fill="#0084FF"/>
<path d="M50.0998 9.97363C45.1338 9.97363 41.1094 13.9981 41.1094 18.964C41.1094 23.9299 45.1338 27.9544 50.0998 27.9544C55.0657 27.9544 59.0901 23.9299 59.0901 18.964C59.0901 13.9981 55.0657 9.97363 50.0998 9.97363ZM50.0998 21.5299C48.6809 21.5299 47.5317 20.3806 47.5317 18.9618C47.5317 17.543 48.6809 16.3938 50.0998 16.3938C51.5186 16.3938 52.6678 17.543 52.6678 18.9618C52.6678 20.3806 51.5186 21.5299 50.0998 21.5299Z" fill="#0084FF"/>
</g>
<defs>
<clipPath id="clip0_1254_11912">
<rect width="60" height="27.9524" fill="white"/>
</clipPath>
</defs>
</svg>
