<svg xmlns="http://www.w3.org/2000/svg" width="37" height="37" viewBox="0 0 37 37" fill="none">
  <circle cx="18.5" cy="18.5" r="18.5" fill="#5F5F5F"/>
  <g opacity="0.7">
    <path d="M18.484 27.9937C17.5475 27.9937 16.6103 28.0107 15.6744 27.9888C14.6989 27.966 13.7201 27.9782 12.7522 27.8207C11.5745 27.6292 10.5778 27.1272 9.88205 26.1216C9.46942 25.5254 9.26416 24.8492 9.15835 24.1398C9.06226 23.4971 9.04948 22.8486 9.03124 22.2001C8.97286 20.1222 9.01574 18.044 9.00783 15.9661C9.00448 15.0892 9.03307 14.213 9.10179 13.3392C9.1626 12.5646 9.3262 11.8111 9.72149 11.1325C10.2898 10.1573 11.1446 9.55903 12.2322 9.28472C12.7595 9.15197 13.2956 9.0926 13.8384 9.06794C16.4139 8.95194 18.9909 9.01984 21.5671 9.01892C22.4863 9.01862 23.4098 9.03262 24.3211 9.19216C25.4133 9.38366 26.3462 9.85192 27.024 10.7598C27.4749 11.3639 27.7006 12.0577 27.8201 12.7918C27.9082 13.3328 27.9274 13.8793 27.9456 14.4267C28.0092 16.3013 28.0043 18.1767 27.9934 20.0516C27.9876 21.0295 27.9837 22.0077 27.9368 22.985C27.8994 23.7611 27.8292 24.5332 27.547 25.2673C27.0188 26.6416 25.9993 27.432 24.589 27.7559C24.0939 27.8695 23.5895 27.9139 23.0841 27.9374C21.5515 28.0083 20.0178 28.0049 18.484 27.9937ZM24.4123 18.5159C24.4463 15.2947 21.8103 12.5887 18.5351 12.5793C15.2484 12.5698 12.5798 15.2037 12.5725 18.4666C12.5652 21.7529 15.2006 24.4206 18.4631 24.4294C21.7553 24.4385 24.4056 21.804 24.4123 18.5159ZM24.6784 10.9623C23.9124 10.9608 23.2997 11.5621 23.296 12.3186C23.2924 13.0774 23.9036 13.6939 24.6616 13.696C25.4261 13.6981 26.0427 13.0929 26.0467 12.3357C26.051 11.5788 25.4379 10.9638 24.6784 10.9623Z" fill="white"/>
    <path d="M22.2992 18.5069C22.2959 20.6158 20.5976 22.3047 18.4847 22.3002C16.3933 22.2957 14.6903 20.5842 14.6993 18.4869C14.7085 16.3373 16.4857 14.6763 18.558 14.7005C20.6195 14.7241 22.3022 16.4192 22.2992 18.5069Z" fill="white"/>
  </g>
</svg>