<svg xmlns="http://www.w3.org/2000/svg" width="80" height="38" viewBox="0 0 80 38" fill="none">
  <g clip-path="url(#clip0_2712_11138)">
    <path d="M16.7648 13.9253L12.2651 14.3069V9.27148H3.94365V14.9799L0.00390625 15.3585V22.3708L11.3782 21.3643C12.3359 18.3238 14.2512 15.722 16.7648 13.9253Z" fill="#D9D9D9"/>
    <path d="M38.4599 14.3494V5.78375L34.0929 6.2885V0.0302734H25.6094V11.3239C28.8773 11.4892 31.8564 12.7901 34.1813 14.8451L38.4599 14.3494Z" fill="#D9D9D9"/>
    <path d="M14.7865 11.9789L23.108 11.3059V0.0302734H0V6.70611H14.7865V11.9789Z" fill="#D9D9D9"/>
    <path d="M24.8973 13.5596C18.2761 13.5596 12.9102 19.0306 12.9102 25.7816C12.9102 32.5325 18.2761 38.0036 24.8973 38.0036C31.5186 38.0036 36.8845 32.5325 36.8845 25.7816C36.8816 19.0306 31.5156 13.5596 24.8973 13.5596ZM24.8973 29.2697C23.0056 29.2697 21.4733 27.7074 21.4733 25.7786C21.4733 23.8497 23.0056 22.2874 24.8973 22.2874C26.7891 22.2874 28.3214 23.8497 28.3214 25.7786C28.3185 27.7074 26.7862 29.2697 24.8973 29.2697Z" fill="#D9D9D9"/>
    <path d="M75.632 14.4335L79.999 13.9288V5.36313L75.632 5.86788V0.0302734H67.1484V11.3149C70.3515 11.393 73.2923 12.5587 75.632 14.4605V14.4335Z" fill="#D9D9D9"/>
    <path d="M63.9279 11.6031L57.2183 7.9377V7.09646H64.6322V0H40.702V7.09646H48.5285V7.97976L38.3535 15.0762L43.5427 20.9559L53.0163 14.1508L56.3579 15.9836C58.3351 13.7963 60.9636 12.228 63.9279 11.6031Z" fill="#D9D9D9"/>
    <path d="M66.7977 13.5586C60.1765 13.5586 54.8105 19.0297 54.8105 25.7806C54.8105 32.5316 60.1765 38.0026 66.7977 38.0026C73.419 38.0026 78.7849 32.5316 78.7849 25.7806C78.7849 19.0297 73.419 13.5586 66.7977 13.5586ZM66.7977 29.2687C64.9059 29.2687 63.3737 27.7064 63.3737 25.7776C63.3737 23.8488 64.9059 22.2865 66.7977 22.2865C68.6895 22.2865 70.2218 23.8488 70.2218 25.7776C70.2218 27.7064 68.6895 29.2687 66.7977 29.2687Z" fill="#D9D9D9"/>
  </g>
  <defs>
    <clipPath id="clip0_2712_11138">
      <rect width="80" height="38" fill="white"/>
    </clipPath>
  </defs>
</svg>