<svg width="37" height="37" viewBox="0 0 37 37" fill="none" xmlns="http://www.w3.org/2000/svg">
<circle cx="18.5" cy="18.5" r="18.5" fill="#5F5F5F"/>
<path d="M29.002 12.9243C28.2661 13.2509 27.4753 13.4713 26.645 13.5704C27.4917 13.0631 28.1424 12.2584 28.4492 11.2997C27.6561 11.7697 26.7779 12.1114 25.8438 12.2957C25.095 11.498 24.0291 11 22.8488 11C20.5828 11 18.7448 12.8368 18.7448 15.104C18.7448 15.4259 18.781 15.7385 18.8509 16.0394C15.4408 15.8679 12.4167 14.234 10.3933 11.7522C10.0399 12.3587 9.83816 13.0631 9.83816 13.8153C9.83816 15.2393 10.5624 16.4954 11.6633 17.2313C10.9904 17.2103 10.3583 17.0248 9.80433 16.7181C9.80433 16.7356 9.80433 16.7519 9.80433 16.7694C9.80433 18.7579 11.219 20.4163 13.0967 20.793C12.7526 20.8863 12.3899 20.9364 12.0155 20.9364C11.7508 20.9364 11.4942 20.9108 11.2435 20.863C11.766 22.4934 13.2809 23.6795 15.0769 23.7121C13.6728 24.813 11.9036 25.4685 9.98044 25.4685C9.64922 25.4685 9.32267 25.4487 9.00195 25.4113C10.8178 26.5753 12.9754 27.2552 15.2927 27.2552C22.8407 27.2552 26.968 21.0017 26.968 15.5799C26.968 15.4014 26.9645 15.2253 26.9564 15.0492C27.7552 14.4696 28.4515 13.7465 29.002 12.9243Z" fill="#CACDCF"/>
</svg>
